<?xml version="1.0" encoding="UTF-8"?>
<svg id="Layer_2" data-name="Layer 2" xmlns="http://www.w3.org/2000/svg" xmlns:xlink="http://www.w3.org/1999/xlink" viewBox="0 0 765.73 230.07">
  <defs>
    <style>
      .cls-1 {
        fill: url(#linear-gradient-13);
      }

      .cls-2 {
        fill: url(#linear-gradient-15);
      }

      .cls-2, .cls-3, .cls-4 {
        fill-rule: evenodd;
      }

      .cls-5 {
        fill: url(#linear-gradient-2);
      }

      .cls-6 {
        fill: #165b10;
      }

      .cls-7 {
        fill: url(#linear-gradient-10);
      }

      .cls-8 {
        fill: url(#linear-gradient-12);
      }

      .cls-9 {
        fill: url(#linear-gradient-4);
      }

      .cls-10 {
        fill: url(#linear-gradient-3);
      }

      .cls-11 {
        fill: url(#linear-gradient-5);
      }

      .cls-12 {
        fill: url(#linear-gradient-8);
      }

      .cls-3 {
        fill: url(#linear-gradient-16);
      }

      .cls-13 {
        fill: url(#linear-gradient-7);
      }

      .cls-14 {
        fill: url(#linear-gradient-9);
      }

      .cls-15 {
        fill: url(#linear-gradient-11);
      }

      .cls-16 {
        fill: url(#linear-gradient-6);
      }

      .cls-4 {
        fill: url(#linear-gradient-14);
      }

      .cls-17 {
        fill: url(#linear-gradient);
      }
    </style>
    <linearGradient id="linear-gradient" x1="275.68" y1="74.37" x2="275.68" y2="158.68" gradientUnits="userSpaceOnUse">
      <stop offset="0" stop-color="#6dcf75"/>
      <stop offset="1" stop-color="#008163"/>
    </linearGradient>
    <linearGradient id="linear-gradient-2" x1="330.36" y1="74.37" x2="330.36" y2="158.68" xlink:href="#linear-gradient"/>
    <linearGradient id="linear-gradient-3" x1="375.13" y1="74.37" x2="375.13" y2="158.68" xlink:href="#linear-gradient"/>
    <linearGradient id="linear-gradient-4" x1="456.58" y1="74.37" x2="456.58" y2="158.68" xlink:href="#linear-gradient"/>
    <linearGradient id="linear-gradient-5" x1="517.56" y1="74.37" x2="517.56" y2="158.68" xlink:href="#linear-gradient"/>
    <linearGradient id="linear-gradient-6" x1="566.83" y1="74.37" x2="566.83" y2="158.68" xlink:href="#linear-gradient"/>
    <linearGradient id="linear-gradient-7" x1="613.85" y1="74.37" x2="613.85" y2="158.68" xlink:href="#linear-gradient"/>
    <linearGradient id="linear-gradient-8" x1="661.33" y1="74.37" x2="661.33" y2="158.68" xlink:href="#linear-gradient"/>
    <linearGradient id="linear-gradient-9" x1="708.58" y1="74.37" x2="708.58" y2="158.68" xlink:href="#linear-gradient"/>
    <linearGradient id="linear-gradient-10" x1="752.23" y1="74.37" x2="752.23" y2="158.68" xlink:href="#linear-gradient"/>
    <linearGradient id="linear-gradient-11" x1="116.37" y1="-14.98" x2="176.11" y2="78.14" xlink:href="#linear-gradient"/>
    <linearGradient id="linear-gradient-12" x1="45.7" y1="30.35" x2="164.51" y2="215.55" xlink:href="#linear-gradient"/>
    <linearGradient id="linear-gradient-13" x1="116.37" y1="-14.98" x2="176.11" y2="78.14" xlink:href="#linear-gradient"/>
    <linearGradient id="linear-gradient-14" x1="54.95" y1="108.46" x2="105.25" y2="108.46" xlink:href="#linear-gradient"/>
    <linearGradient id="linear-gradient-15" x1="97.14" y1="135.59" x2="145.47" y2="135.59" xlink:href="#linear-gradient"/>
    <linearGradient id="linear-gradient-16" x1="107.77" y1="95.33" x2="134.84" y2="95.33" xlink:href="#linear-gradient"/>
  </defs>
  <g id="Layer_1-2" data-name="Layer 1">
    <g>
      <g>
        <path class="cls-17" d="M252.28,126.28v-37.8c0-4.08,1.23-7.35,3.69-9.81s5.73-3.69,9.81-3.69h19.8c4.08,0,7.35,1.23,9.81,3.69,2.46,2.46,3.69,5.73,3.69,9.81v37.8c0,4.08-1.23,7.35-3.69,9.81-2.46,2.46-5.73,3.69-9.81,3.69h-19.8c-4.08,0-7.35-1.23-9.81-3.69-2.46-2.46-3.69-5.73-3.69-9.81ZM269.38,129.88h12.6c4.2,0,6.3-2.1,6.3-6.3v-32.4c0-4.2-2.1-6.3-6.3-6.3h-12.6c-4.2,0-6.3,2.1-6.3,6.3v32.4c0,4.2,2.1,6.3,6.3,6.3Z"/>
        <path class="cls-5" d="M310.78,154.18v-60.75h7.2l1.35,4.95h.45c.72-1.26,1.5-2.22,2.34-2.88,2.34-1.98,5.01-2.97,8.01-2.97h8.1c3.42,0,6.22,1.1,8.42,3.29,2.19,2.19,3.29,5,3.29,8.42v22.95c0,3.42-1.1,6.23-3.29,8.42-2.19,2.19-5,3.29-8.42,3.29h-17.1v15.3h-10.35ZM321.13,129.43h13.05c3.6,0,5.4-1.8,5.4-5.4v-16.65c0-3.6-1.8-5.4-5.4-5.4h-5.4c-5.1,0-7.65,2.55-7.65,7.65v19.8Z"/>
        <path class="cls-10" d="M357.58,138.88v-9.45h21.15c2.4,0,3.6-1.2,3.6-3.6s-1.2-3.63-3.6-4.05l-10.35-2.25c-3.24-.66-5.85-2.05-7.83-4.19-1.98-2.13-2.97-4.63-2.97-7.51v-2.7c0-3.42,1.09-6.22,3.29-8.42,2.19-2.19,5-3.29,8.42-3.29h21.6v6.3l-3.15,3.15h-16.2c-2.4,0-3.6,1.2-3.6,3.6s1.2,3.63,3.6,4.05l10.35,2.25c3.24.66,5.85,2.06,7.83,4.19,1.98,2.13,2.97,4.64,2.97,7.52v2.7c0,3.42-1.1,6.23-3.29,8.42-2.19,2.19-5,3.29-8.42,3.29h-23.4Z"/>
        <path class="cls-9" d="M421.93,138.88v-5.4l6.3-57.6h12.15l15.93,39.6h.54l15.93-39.6h12.15l6.3,57.6v5.4h-11.25l-3.6-45h-.45l-14.4,36h-9.9l-14.4-36h-.45l-3.6,45h-11.25Z"/>
        <path class="cls-11" d="M498.88,128.09v-5.4c0-3.42,1.09-6.22,3.29-8.42,2.19-2.19,5-3.28,8.42-3.28h15.3v-2.7c0-3.6-1.8-5.4-5.4-5.4h-18v-9.45h22.05c3.42,0,6.22,1.1,8.42,3.29,2.19,2.19,3.29,5,3.29,8.42v33.75h-7.2l-1.35-4.95h-.45c-.66,1.26-1.44,2.25-2.34,2.97-2.28,1.92-4.95,2.88-8.01,2.88h-6.3c-3.42,0-6.23-1.09-8.42-3.28-2.19-2.19-3.29-5-3.29-8.42ZM514.18,130.34h4.5c2.28,0,4.05-.63,5.31-1.89,1.26-1.26,1.89-3.03,1.89-5.31v-3.15h-11.7c-3.3,0-4.95,1.5-4.95,4.5v.9c0,3.3,1.65,4.95,4.95,4.95Z"/>
        <path class="cls-16" d="M547.93,138.88v-45.45h7.2l1.35,4.95h.45c.6-1.2,1.35-2.16,2.25-2.88,2.1-1.98,4.65-2.97,7.65-2.97h7.2c3.42,0,6.22,1.1,8.42,3.29,2.19,2.19,3.29,5,3.29,8.42v34.65h-10.35v-31.5c0-3.6-1.8-5.4-5.4-5.4h-4.05c-5.1,0-7.65,2.55-7.65,7.65v29.25h-10.35Z"/>
        <path class="cls-13" d="M595.18,128.09v-5.4c0-3.42,1.09-6.22,3.29-8.42,2.19-2.19,5-3.28,8.42-3.28h15.3v-2.7c0-3.6-1.8-5.4-5.4-5.4h-18v-9.45h22.05c3.42,0,6.22,1.1,8.42,3.29,2.19,2.19,3.29,5,3.29,8.42v33.75h-7.2l-1.35-4.95h-.45c-.66,1.26-1.44,2.25-2.34,2.97-2.28,1.92-4.95,2.88-8.01,2.88h-6.3c-3.42,0-6.23-1.09-8.42-3.28-2.19-2.19-3.29-5-3.29-8.42ZM610.48,130.34h4.5c2.28,0,4.05-.63,5.31-1.89,1.26-1.26,1.89-3.03,1.89-5.31v-3.15h-11.7c-3.3,0-4.95,1.5-4.95,4.5v.9c0,3.3,1.65,4.95,4.95,4.95Z"/>
        <path class="cls-12" d="M640.18,143.38v-4.05c0-3.6,1.35-6.33,4.05-8.19,1.26-.9,2.61-1.47,4.05-1.71v-.45c-.66-.18-1.2-.48-1.62-.9-1.02-.78-1.53-1.98-1.53-3.6,0-1.5.51-2.7,1.53-3.6.36-.3.9-.6,1.62-.9v-.45c-.9-.48-1.8-1.17-2.7-2.07-1.8-1.92-2.7-4.08-2.7-6.48v-6.75c0-3.42,1.09-6.22,3.29-8.42,2.19-2.19,5-3.29,8.42-3.29h10.35l4.05-7.65h9v5.4l-4.5,3.6v.45c.9.36,1.95,1.02,3.15,1.98,2.1,1.98,3.15,4.62,3.15,7.92v5.85c0,3.42-1.1,6.23-3.29,8.42-2.19,2.19-5,3.28-8.42,3.28h-11.25c-1.8,0-2.7.9-2.7,2.7s.9,2.7,2.7,2.7h14.4c3.18,0,5.85,1.11,8.01,3.33,2.16,2.22,3.24,5.01,3.24,8.37v4.5c0,3.36-1.09,6.15-3.28,8.37-2.19,2.22-4.94,3.33-8.24,3.33h-19.08c-3.42,0-6.23-1.1-8.42-3.29-2.19-2.19-3.29-5-3.29-8.42ZM655.03,145.63h12.6c1.38,0,2.47-.4,3.29-1.21.81-.81,1.21-1.91,1.21-3.29s-.41-2.48-1.21-3.29c-.81-.81-1.91-1.21-3.29-1.21h-12.6c-1.38,0-2.48.4-3.29,1.21-.81.81-1.21,1.9-1.21,3.29s.4,2.48,1.21,3.29c.81.81,1.9,1.21,3.29,1.21ZM658.18,112.34h6.3c3.3,0,4.95-1.65,4.95-4.95v-.45c0-3.3-1.65-4.95-4.95-4.95h-6.3c-3.3,0-4.95,1.65-4.95,4.95v.45c0,3.3,1.65,4.95,4.95,4.95Z"/>
        <path class="cls-14" d="M689.23,127.18v-22.95c0-3.24,1.12-6,3.38-8.28,2.25-2.28,5.02-3.42,8.33-3.42h15.3c3.24,0,6,1.14,8.28,3.42,2.28,2.28,3.42,5.04,3.42,8.28v16.65h-28.35v3.15c0,3.6,1.8,5.4,5.4,5.4h21.15v9.45h-25.2c-3.3,0-6.08-1.12-8.33-3.38s-3.38-5.02-3.38-8.33ZM699.58,111.88h18v-4.5c0-3.6-1.8-5.4-5.4-5.4h-7.2c-3.6,0-5.4,1.8-5.4,5.4v4.5Z"/>
        <path class="cls-7" d="M738.73,138.88v-45.45h7.2l1.35,4.95h.45c.72-1.26,1.5-2.22,2.34-2.88,2.34-1.98,5.01-2.97,8.01-2.97h7.65v9.9h-9.45c-2.28,0-4.05.63-5.31,1.89-1.26,1.26-1.89,3.03-1.89,5.31v29.25h-10.35Z"/>
      </g>
      <g>
        <g>
          <g>
            <polygon class="cls-15" points="172.82 73.01 172.82 73.02 172.81 73.01 172.82 73.01"/>
            <g>
              <path class="cls-8" d="M187.5,95.82l11.05-6.37c.93-.54,1.5-1.53,1.5-2.6v-27.83c0-1.07-.57-2.06-1.5-2.6L101.52.4c-.93-.54-2.07-.54-3,0l-24.1,13.91c-.93.54-1.5,1.53-1.5,2.6v12.77c0,1.07-.58,2.06-1.51,2.6l-28.77,16.6c-.93.54-2.07.54-3,0l-11.05-6.37c-.93-.54-2.07-.54-3,0L1.5,56.41c-.93.54-1.5,1.53-1.5,2.6v112.04c0,1.07.57,2.06,1.5,2.6l24.1,13.91c.93.54,2.07.54,3,0l11.06-6.37c.93-.54,2.07-.54,3,0l28.77,16.61c.93.54,1.5,1.53,1.5,2.6v12.76c0,1.07.57,2.06,1.5,2.6l24.1,13.9c.93.54,2.07.54,3,0l97.02-56.01c.93-.54,1.5-1.53,1.5-2.6v-27.83c0-1.07-.57-2.06-1.5-2.6l-11.05-6.38c-.93-.54-1.5-1.53-1.5-2.6v-33.23c0-1.07.57-2.06,1.5-2.6ZM170.4,153.94c0,1.07-.58,2.06-1.5,2.6l-67.38,38.9c-.93.53-2.07.53-3,0l-67.38-38.9c-.92-.54-1.5-1.53-1.5-2.6v-77.8c0-1.07.58-2.06,1.5-2.6l67.38-38.9c.93-.53,2.07-.53,3,0l67.38,38.9c.92.54,1.5,1.53,1.5,2.6v77.8ZM172.82,73.02h-.01s.01-.01.01-.01h0Z"/>
              <polygon class="cls-1" points="172.82 73.01 172.82 73.02 172.81 73.01 172.82 73.01"/>
            </g>
          </g>
          <polygon class="cls-6" points="172.82 73.01 172.82 73.02 172.81 73.01 172.82 73.01"/>
        </g>
        <g id="Layer_1-3" data-name="Layer_1">
          <path class="cls-4" d="M92.48,102.84v3.89c0,.69-.32,1.33-.86,1.75l-6.27,4.81-6.27-4.82c-.57-.43-.86-1.03-.86-1.75v-3.98l-.49-.52c-.87-.92-1.4-2.11-1.48-3.37l-.14-2.22h-.03c-.44-.15-.82-.3-1.09-.53-.28-.23-.47-.53-.68-1.12-.21-.6-.45-1.49-.62-2.28-.17-.8-.27-1.5-.32-2.11-.05-.61-.04-1.14.11-1.54s.53-.74.8-.82.41-.03.53-.06-.06-.1-.06-.15v-.09s-.06-.06-.08-.1c-1.01-1.33-1.78-3.92-1.99-6.24-.21-2.33.14-4.37.48-6.42.63.4,1.26.78,2.41.17,1.16-.61,2.84-2.25,4.75-3.37,1.92-1.13,4.07-1.76,6.28-1.66,2.22.11,4.5.95,5.8,2.05,1.29,1.12,1.61,2.49,1.92,3.87,1.01-.03,2.02-.06,2.76,1.12.73,1.18,1.17,3.57,1,5.66-.17,2.09-.96,3.9-1.75,4.83-.07.08-.15.15-.21.23l-.02.07c.2,0,.4.05.57.12.39.15.74.4.91.89.16.48.15,1.19.08,1.89s-.16,1.41-.34,2.12c-.17.71-.4,1.42-.61,1.93-.21.5-.4.8-.68,1.03-.27.23-.65.39-1.09.52-.09.02-.17.06-.26.07l-.14,2.16c-.09,1.3-.57,2.39-1.46,3.34l-.58.61ZM76.31,107.57c.53,2.58,1.04,5.16,1.37,7.38.32,2.21.43,4.07.55,5.92.52-1.1,1.04-2.21,1.62-3.03.58-.82,1.22-1.37,1.86-1.92.81,1.27,1.62,2.55,1.85,3.31.22.77-.15,1.03-.57,3.89-.44,2.85-.95,18.05-1.45,23.49h-22.59c-2.32,0-4.15-1.97-3.98-4.29.52-6.89,1.1-17.34,1.92-20.37,1.03-3.78,2.45-5.78,4.68-7.31s7.88-2.61,10.04-3.71c2.17-1.1,3.43-2.23,4.71-3.36ZM95.47,107.57c-.52,2.58-1.04,5.16-1.36,7.38-.32,2.21-.44,4.07-.55,5.92-.53-1.1-1.04-2.21-1.62-3.03s-1.22-1.37-1.85-1.92c-.82,1.27-1.62,2.55-1.85,3.31s.14,1.03.57,3.89c.44,2.85.94,18.05,1.45,23.49h5l-.55-1.18c-1.17-2.52-.07-5.54,2.44-6.72l.63-.29c-.14-1.19-.19-2.39-.15-3.59l-.63-.23c-2.63-.95-3.99-3.86-3.03-6.49l1.58-4.36c.96-2.63,3.86-3.98,6.49-3.03l.65.24c.74-.94,1.55-1.83,2.42-2.64l-.29-.62c-.79-1.69-.56-3.6.44-5.04-1.99-.61-3.98-1.16-5.08-1.71-2.16-1.1-3.43-2.23-4.71-3.36Z"/>
          <g>
            <path class="cls-2" d="M116.45,115.98c2.66-.66,5.37-.76,7.98-.35l1.15-3.18c.3-.81,1.2-1.24,2.02-.94l4.36,1.58c.82.3,1.24,1.2.94,2.01l-1.16,3.18c2.26,1.36,4.28,3.18,5.89,5.39l3.06-1.43c.78-.36,1.72-.02,2.09.76l1.96,4.2c.37.78.02,1.73-.76,2.09l-3.06,1.42c.65,2.66.75,5.37.34,7.98l3.18,1.16c.82.29,1.24,1.2.95,2.01l-1.59,4.36c-.29.81-1.2,1.23-2.01.94l-3.18-1.16c-1.37,2.26-3.18,4.28-5.39,5.88l1.43,3.06c.37.78.02,1.72-.76,2.08l-4.21,1.96c-.78.36-1.72.02-2.09-.76l-1.43-3.06c-2.65.66-5.36.76-7.97.35l-1.16,3.18c-.3.81-1.2,1.24-2.01.94l-4.36-1.58c-.82-.3-1.24-1.2-.94-2.02l1.16-3.18c-2.26-1.36-4.28-3.18-5.88-5.39l-3.06,1.43c-.78.36-1.72.02-2.09-.76l-1.96-4.2c-.36-.78-.02-1.72.76-2.09l3.06-1.42c-.66-2.66-.76-5.37-.35-7.98l-3.18-1.16c-.82-.29-1.24-1.2-.94-2.01l1.58-4.36c.3-.82,1.2-1.24,2.01-.95l3.18,1.16c1.37-2.26,3.18-4.28,5.39-5.88l-1.42-3.06c-.37-.78-.02-1.72.76-2.09l4.2-1.96c.78-.36,1.72-.02,2.09.76l1.43,3.06ZM120.49,130.64c3.41-.54,6.31,2.36,5.77,5.77-.31,1.97-1.83,3.61-3.77,4.06-3.68.84-6.9-2.38-6.06-6.06.45-1.94,2.09-3.46,4.06-3.77ZM115.06,122.21c7.39-3.45,16.17-.25,19.62,7.14,3.44,7.4.25,16.18-7.14,19.62-7.39,3.45-16.17.25-19.62-7.14-3.44-7.4-.24-16.18,7.14-19.62Z"/>
            <path class="cls-3" d="M118.9,81.08h4.81l.91,4.63c1.24.43,2.38,1.09,3.35,1.93l4.47-1.52,1.2,2.08,1.2,2.09-3.55,3.11c.12.62.19,1.27.19,1.93s-.06,1.3-.19,1.93l3.55,3.11-1.2,2.08-1.2,2.09-4.47-1.52c-.97.84-2.1,1.5-3.35,1.93l-.91,4.63h-4.81l-.92-4.63c-1.24-.43-2.37-1.09-3.35-1.93l-4.47,1.52-1.2-2.09-1.2-2.08,3.55-3.11c-.12-.63-.19-1.27-.19-1.93s.06-1.31.19-1.93l-3.55-3.11,1.2-2.09,1.2-2.08,4.47,1.52c.98-.84,2.11-1.5,3.35-1.93l.92-4.63ZM119.97,90.58c3.74-.99,7.07,2.34,6.08,6.08-.44,1.64-1.76,2.97-3.41,3.41-3.74.99-7.07-2.34-6.08-6.08.44-1.64,1.76-2.97,3.41-3.41Z"/>
          </g>
        </g>
      </g>
    </g>
  </g>
</svg>